<svg width="79.999634" height="80.000000" viewBox="0 0 79.9996 80" fill="none" xmlns="http://www.w3.org/2000/svg" xmlns:xlink="http://www.w3.org/1999/xlink">
	<desc>
			Created with Pixso.
	</desc>
	<defs/>
	<path id="Vector" d="M40 80C39.6 80 39.2 79.99 38.81 79.98L46.98 57.51L58.23 57.51C60.21 57.51 62.37 55.99 63.05 54.14L71.92 29.78C73.37 25.79 71.08 22.53 66.84 22.53L51.23 22.53L38.14 58.51L38.13 58.51L30.71 78.91C13.1 74.72 0 58.89 0 40C0 21.65 12.35 6.18 29.2 1.47L21.54 22.53L21.53 22.53L8.8 57.51L17.28 57.51L28.11 27.78L34.48 27.78L23.65 57.51L32.12 57.51L42.21 29.78C43.67 25.79 41.38 22.53 37.14 22.53L30.01 22.53L38.2 0.04C38.79 0.01 39.39 0 39.99 0C62.09 0 79.99 17.9 79.99 40C79.99 62.09 62.09 80 39.99 80L40 80ZM64.2 27.76L57.83 27.76L48.91 52.24L55.28 52.24L64.2 27.76Z" fill="#000000" fill-opacity="1.000000" fill-rule="nonzero"/>
</svg>
