<svg width="132" height="132" fill="none" xmlns="http://www.w3.org/2000/svg"><path d="M117.36 48.46l2.04-23.2-21.66-5.15L86.4 0 66 9.17 45.6 0 34.25 20.05 12.6 25.14l2.04 23.25L0 66l14.64 17.53-2.04 23.26 21.65 5.15L45.6 132l20.4-9.24 20.4 9.17 11.34-20.05 21.66-5.15-2.04-23.2L132 66l-14.64-17.54zM126.78 66l-13.55-16.25.14-1.64 1.74-19.75-20-4.76L84.7 5.14 66 13.56 47.28 5.14l-10.41 18.4-19.99 4.7 1.88 21.45L5.2 65.99l13.56 16.25-1.88 21.46 20 4.76 10.4 18.38 18.71-8.47 18.72 8.42 10.4-18.4 20-4.75-1.88-21.4L126.78 66z" fill="#F8F200" fill-rule="evenodd"/><path d="M48.4 84.17l5.83 5.84-6.41 6.4q-1.44 1.45-2.89 1.46-1.5.01-3-1.5-1.41-1.4-1.42-2.81-.02-1.48 1.48-2.98l4.07-4.07-.02-.02q-.56-.57-1.13-.57-.59-.01-1.18.59l-5.41 5.41-2.33-2.34 5.4-5.41q1.75-1.75 3.5-1.75t3.51 1.75zm14.27-2.6L66 78.24l-9.44.1.11-9.44-3.31 3.31-.19 7.19L52 80.57l-3.5-3.5-2.33 2.33 9.33 9.34 2.33-2.34-3.5-3.5 1.17-1.16 7.17-.17zm8.64-13.31l-7-7 2.34-2.34 7 7 1.27-1.27 4.67 4.67-2.44 2.44-2.34-2.34-4.66 4.67q-1.75 1.75-3.5 1.75t-3.5-1.75l-5.84-5.83 2.34-2.34 5.83 5.84c.78.77 1.56.77 2.33 0l3.5-3.5zm13.59-8.92l2.33-2.33-9.33-9.34-2.34 2.34 4.99 4.98c.51 2.07.08 3.98-1.28 5.73-.79.76-1.57.76-2.33 0l-6.04-6.05-2.34 2.34 6.05 6.04c2.33 2.34 4.66 2.34 7 0q1.69-1.69 2.29-4.71l1 1zm-4.26-12.97q-.01 1.49 1.5 3c1.91 1.91 3.84 1.89 5.79-.06l.57 6.42 3.04-3.03-.58-6.43L92 45.23l3.5 3.5 2.34-2.33-9.34-9.33-6.4 6.4q-1.45 1.45-1.46 2.9zm3.79-.56l4.07-4.08 1.17 1.17-4.07 4.07q-.33.33-.65.32-.24-.02-.48-.25-.34-.34-.33-.67.01-.29.29-.56zM44.02 93.52q0 .29.28.56c.4.4.79.4 1.19 0l4.07-4.07-1.16-1.17-4.08 4.07q-.31.31-.3.61z" fill="#F8F200" fill-rule="evenodd"/></svg>